<?xml version="1.0" standalone="no"?>
<!DOCTYPE svg PUBLIC "-//W3C//DTD SVG 20010904//EN"
 "http://www.w3.org/TR/2001/REC-SVG-20010904/DTD/svg10.dtd">
<svg version="1.0" xmlns="http://www.w3.org/2000/svg"
 width="1024.000000pt" height="1024.000000pt" viewBox="0 0 1024.000000 1024.000000"
 preserveAspectRatio="xMidYMid meet">

<g transform="translate(0.000000,1024.000000) scale(0.100000,-0.100000)"
fill="#000000" stroke="none">
<path d="M4775 9469 c-1151 -78 -2221 -602 -2990 -1465 -634 -713 -992 -1541
-1080 -2504 -23 -244 -16 -668 14 -910 109 -873 421 -1597 984 -2280 91 -109
406 -424 522 -521 513 -428 1059 -714 1705 -893 601 -166 1376 -191 2005 -65
406 82 715 188 1100 378 297 147 509 281 771 486 486 383 901 890 1176 1438
272 545 412 1060 459 1692 14 193 6 580 -15 780 -77 701 -313 1349 -705 1933
-483 721 -1212 1311 -2011 1627 -625 248 -1270 349 -1935 304z m771 -173 c852
-115 1547 -404 2166 -900 720 -577 1216 -1338 1444 -2215 155 -597 178 -1213
68 -1826 -184 -1032 -767 -1976 -1608 -2604 -648 -484 -1389 -763 -2204 -832
-181 -15 -682 -6 -840 15 -701 94 -1268 302 -1835 672 -246 161 -410 295 -641
522 -336 332 -603 697 -805 1102 -108 217 -148 312 -216 512 -158 463 -226
882 -225 1396 0 456 63 859 201 1282 313 957 962 1766 1844 2296 360 216 754
379 1155 478 240 60 399 86 735 120 97 10 655 -3 761 -18z"/>
<path d="M3073 6663 c-11 -15 -51 -84 -88 -153 -38 -69 -116 -208 -173 -310
-194 -343 -374 -664 -500 -890 -69 -124 -186 -331 -260 -460 -126 -221 -484
-858 -560 -998 -30 -56 -33 -67 -22 -87 28 -53 209 -90 395 -82 382 17 784
191 1196 518 108 86 334 306 455 443 80 91 69 90 185 5 70 -52 93 -59 103 -33
3 9 6 182 6 385 0 329 -2 370 -16 376 -28 10 -692 -195 -713 -221 -19 -23 -4
-39 80 -90 44 -26 83 -54 86 -62 10 -26 -50 -97 -267 -315 -294 -296 -533
-483 -785 -616 -55 -29 -103 -53 -107 -53 -6 0 10 31 122 230 20 36 82 148
139 248 56 101 200 353 318 560 119 208 261 456 316 552 55 96 107 183 117
194 17 18 18 18 36 -2 11 -11 59 -92 109 -181 49 -88 95 -163 103 -166 19 -7
379 143 386 162 4 9 -57 128 -148 292 -469 840 -431 776 -464 779 -23 2 -34
-3 -49 -25z"/>
<path d="M8258 6028 c-94 -12 -172 -64 -197 -131 -16 -43 -13 -134 6 -174 22
-47 78 -86 171 -118 42 -15 97 -34 121 -42 58 -21 81 -45 81 -86 0 -58 -52
-90 -142 -88 -57 1 -110 21 -161 62 -21 17 -39 29 -41 28 -1 -2 -19 -26 -40
-52 l-38 -48 23 -26 c106 -113 336 -137 471 -48 97 65 116 220 36 311 -38 43
-78 64 -189 99 -106 33 -146 56 -155 91 -9 34 4 54 47 77 44 23 122 16 198
-18 29 -14 55 -25 56 -25 5 0 75 94 75 101 0 12 -81 57 -131 73 -58 19 -122
24 -191 14z"/>
<path d="M5989 6015 c-108 -39 -182 -103 -227 -195 -25 -51 -27 -65 -27 -180
0 -121 1 -127 33 -191 38 -79 82 -121 172 -163 60 -29 73 -31 170 -31 92 0
112 4 161 27 31 14 74 42 96 62 42 37 92 120 81 132 -4 3 -35 13 -69 21 l-61
14 -36 -42 c-46 -54 -101 -79 -175 -79 -71 0 -122 24 -171 82 -43 49 -56 91
-56 173 1 106 46 187 127 226 94 45 227 18 275 -55 27 -41 28 -42 108 -19 53
14 60 19 54 37 -20 72 -113 153 -207 181 -61 18 -199 19 -248 0z"/>
<path d="M4426 5853 c-38 -92 -106 -260 -152 -372 -46 -111 -84 -207 -84 -212
0 -5 35 -9 79 -9 l78 0 30 78 29 77 160 3 161 2 29 -77 30 -78 83 -3 c65 -2
82 0 78 10 -96 238 -170 419 -230 563 l-75 180 -73 3 -74 3 -69 -168z m198
-166 c25 -65 46 -123 46 -128 0 -5 -45 -9 -100 -9 -66 0 -100 4 -100 11 0 25
94 259 101 252 4 -4 28 -61 53 -126z"/>
<path d="M4987 6013 c-12 -11 -8 -468 4 -525 21 -100 70 -163 159 -209 63 -32
201 -39 268 -14 78 30 127 71 164 139 l33 61 3 278 3 277 -75 0 -75 0 -3 -264
c-3 -295 -3 -292 -79 -344 -29 -20 -44 -23 -96 -20 -75 5 -109 26 -140 88 -22
42 -23 55 -23 292 l0 248 -68 0 c-38 0 -72 -3 -75 -7z"/>
<path d="M6534 6006 c-3 -7 -4 -38 -2 -67 l3 -54 118 -3 117 -3 0 -309 0 -310
75 0 75 0 0 316 0 315 115 -5 115 -6 0 70 0 70 -305 0 c-250 0 -307 -3 -311
-14z"/>
<path d="M7264 6007 c-2 -7 -3 -123 -1 -257 5 -286 12 -320 82 -398 67 -74
126 -97 250 -97 88 1 106 4 150 27 64 33 108 80 137 143 22 48 23 63 26 323
l3 272 -75 0 -75 0 -3 -264 c-3 -249 -4 -266 -24 -292 -45 -61 -109 -85 -189
-70 -45 9 -101 57 -114 99 -9 31 -19 238 -20 435 l-1 92 -70 0 c-49 0 -72 -4
-76 -13z"/>
<path d="M4270 4969 c-56 -32 -84 -81 -88 -155 -3 -49 0 -72 17 -106 50 -102
191 -131 276 -56 40 35 42 43 16 58 -16 8 -28 5 -57 -15 -118 -80 -241 44
-174 175 24 47 45 60 99 60 28 0 48 -7 70 -26 25 -21 34 -23 51 -14 26 14 25
31 -2 58 -50 46 -147 56 -208 21z"/>
<path d="M4705 4971 c-116 -60 -135 -230 -36 -314 94 -79 238 -51 290 55 41
85 18 189 -54 244 -51 38 -141 45 -200 15z m164 -67 c93 -78 43 -234 -75 -234
-64 0 -114 47 -121 113 -10 90 35 147 118 147 36 0 55 -6 78 -26z"/>
<path d="M5094 4977 c-2 -7 -3 -91 -2 -187 l3 -175 28 -3 27 -3 0 83 c0 46 3
106 6 135 l7 51 90 -126 c49 -70 90 -127 91 -128 1 -1 16 -4 34 -7 l32 -6 0
189 0 190 -30 0 -30 0 0 -131 c0 -104 -3 -129 -12 -121 -7 6 -51 65 -98 131
-73 104 -89 120 -113 121 -15 0 -30 -6 -33 -13z"/>
<path d="M5591 4974 c-36 -26 -54 -79 -41 -119 13 -40 39 -58 114 -80 69 -20
91 -52 61 -85 -24 -26 -67 -26 -122 1 -43 21 -44 21 -58 3 -17 -24 -5 -41 50
-65 48 -22 94 -24 139 -5 44 18 66 52 66 99 0 50 -37 88 -110 112 -68 22 -80
31 -80 61 0 34 40 49 89 33 20 -6 40 -15 45 -20 11 -10 46 18 46 36 0 38 -154
60 -199 29z"/>
<path d="M5920 4865 c0 -185 30 -239 138 -252 61 -7 113 16 142 62 18 28 20
49 20 174 l0 141 -30 0 -30 0 0 -135 c0 -121 -2 -137 -20 -155 -43 -43 -110
-38 -140 13 -17 27 -20 50 -20 155 l0 122 -30 0 -30 0 0 -125z"/>
<path d="M6370 4800 l0 -190 121 0 120 0 -3 33 -3 32 -87 3 -88 3 0 154 0 155
-30 0 -30 0 0 -190z"/>
<path d="M6680 4958 c0 -27 1 -28 60 -28 l60 0 0 -155 0 -155 33 0 32 0 0 152
0 153 58 3 c53 3 57 5 57 27 l0 24 -150 3 -150 3 0 -27z"/>
<path d="M7165 4971 c-44 -27 -74 -63 -85 -102 -43 -147 57 -275 198 -255 100
14 156 83 157 193 0 52 -4 67 -30 104 -16 23 -46 50 -65 60 -47 25 -135 25
-175 0z m178 -81 c50 -56 32 -172 -33 -205 -62 -32 -136 -10 -164 49 -20 43
-20 75 0 125 34 85 133 101 197 31z"/>
<path d="M7570 4805 l0 -185 30 0 c29 0 29 1 32 62 l3 63 36 2 c35 3 38 0 77
-61 35 -56 44 -64 76 -68 20 -2 36 -2 36 1 0 2 -18 32 -40 66 l-41 62 36 36
c30 30 35 42 35 80 0 89 -59 127 -195 127 l-85 0 0 -185z m200 105 c11 -11 20
-31 20 -45 0 -44 -32 -65 -100 -65 l-60 0 0 65 0 65 60 0 c47 0 64 -4 80 -20z"/>
<path d="M7990 4803 l0 -188 30 -1 30 -1 0 188 0 189 -30 0 -30 0 0 -187z"/>
<path d="M8311 4968 c-5 -13 -38 -96 -74 -185 l-65 -163 33 0 c29 0 34 4 49
45 l18 45 79 0 80 0 19 -45 c17 -40 23 -45 51 -45 25 0 30 3 25 18 -4 9 -37
92 -74 184 l-67 168 -33 0 c-25 0 -35 -5 -41 -22z m66 -115 c12 -32 25 -66 29
-75 5 -16 -1 -18 -55 -18 l-61 0 22 53 c11 28 23 62 26 75 7 34 15 27 39 -35z"/>
<path d="M4234 4153 c-7 -2 5 -56 36 -151 43 -136 48 -147 72 -150 25 -3 28 2
58 95 17 54 34 105 37 113 3 8 16 -15 29 -55 50 -147 54 -155 79 -155 21 0 27
13 63 128 60 187 59 182 29 182 -27 0 -25 5 -77 -175 l-17 -60 -37 113 c-55
163 -71 162 -126 -5 l-36 -106 -33 111 c-33 107 -45 126 -77 115z"/>
<path d="M5804 4150 c-50 -20 -70 -89 -36 -129 9 -11 41 -29 71 -39 58 -20 78
-39 68 -66 -8 -21 -84 -22 -115 0 -18 12 -26 13 -37 4 -22 -18 -18 -28 18 -50
39 -24 118 -27 152 -4 45 29 52 99 13 131 -7 6 -39 21 -71 33 -32 12 -61 28
-64 36 -15 39 55 59 101 29 21 -14 25 -14 36 0 19 23 5 43 -37 54 -45 13 -70
13 -99 1z"/>
<path d="M6158 4153 l-98 -4 0 -149 0 -150 100 0 100 0 0 25 c0 24 -2 25 -70
25 l-70 0 0 40 0 39 63 3 c56 3 62 5 65 26 3 21 0 22 -62 22 l-66 0 0 40 0 40
70 0 c68 0 70 1 70 25 0 14 -1 24 -2 23 -2 -1 -47 -4 -100 -5z"/>
<path d="M6440 4137 c-141 -75 -86 -287 75 -287 95 0 160 70 152 163 -5 60
-30 95 -87 125 -56 28 -86 28 -140 -1z m127 -47 c60 -36 64 -137 8 -174 -28
-18 -87 -21 -116 -6 -25 14 -49 62 -49 101 0 22 10 41 34 65 40 40 75 44 123
14z"/>
<path d="M7219 4145 c-38 -20 -55 -67 -39 -105 9 -23 25 -34 68 -50 31 -12 62
-26 69 -32 16 -13 17 -44 2 -53 -20 -13 -80 -7 -106 10 -25 17 -27 17 -39 0
-17 -22 -13 -29 30 -49 53 -25 122 -21 151 8 34 34 41 70 21 101 -16 25 -40
38 -113 65 -24 9 -33 19 -33 35 0 36 44 46 92 21 19 -10 29 -11 37 -3 20 20
12 38 -24 53 -43 18 -82 17 -116 -1z"/>
<path d="M8109 4131 c-21 -21 -29 -39 -29 -64 0 -42 15 -56 88 -82 58 -21 79
-42 69 -69 -8 -22 -85 -22 -116 0 -20 15 -24 15 -38 1 -9 -8 -13 -19 -9 -25
12 -20 76 -42 120 -42 60 0 96 32 96 83 0 48 -26 75 -90 96 -61 20 -81 41 -61
65 17 20 53 20 91 1 27 -14 30 -14 40 6 13 24 15 21 -27 43 -51 26 -100 21
-134 -13z"/>
<path d="M4751 4000 l-2 -150 100 0 101 0 0 25 c0 24 -2 25 -68 25 -38 0 -71
2 -73 5 -3 2 -3 20 -1 39 l4 35 62 3 c53 3 61 5 61 23 0 18 -8 20 -62 23 l-63
3 0 39 0 40 70 0 c63 0 70 2 70 20 0 19 -7 20 -99 20 l-98 0 -2 -150z"/>
<path d="M5070 3999 l0 -151 91 4 c85 3 92 5 115 31 31 36 30 71 -2 104 -23
23 -24 27 -10 42 25 28 20 76 -10 100 -22 17 -41 21 -105 21 l-79 0 0 -151z
m152 86 c16 -36 -4 -55 -58 -55 l-44 0 0 40 0 40 45 0 c39 0 47 -4 57 -25z
m16 -143 c4 -36 1 -37 -70 -46 l-48 -6 0 46 0 45 58 -3 c56 -3 57 -3 60 -36z"/>
<path d="M7522 4068 c-13 -6 -21 -19 -20 -27 4 -16 11 -17 60 -5 19 4 32 0 47
-15 24 -24 19 -45 -9 -36 -34 11 -96 -13 -108 -40 -17 -36 -15 -52 8 -75 25
-25 91 -27 111 -4 11 14 13 14 21 0 5 -9 18 -16 30 -16 19 0 20 4 16 90 -3 75
-8 94 -25 111 -25 25 -97 34 -131 17z m108 -132 c0 -19 -49 -58 -68 -54 -21 4
-36 32 -29 52 8 21 97 23 97 2z"/>
<path d="M7834 4070 c-30 -12 -36 -26 -18 -40 11 -10 18 -10 26 -2 17 17 54
15 72 -4 25 -25 19 -31 -35 -37 -29 -4 -60 -14 -70 -23 -24 -22 -25 -76 -1
-97 23 -21 81 -22 110 -1 20 14 22 14 22 0 0 -9 9 -16 20 -16 18 0 20 7 20 80
0 43 -5 90 -11 103 -19 41 -82 59 -135 37z m76 -172 c-27 -22 -40 -22 -66 -4
-28 22 -7 50 42 56 33 4 40 2 42 -15 2 -11 -5 -27 -18 -37z"/>
<path d="M5521 4034 c-25 -18 -27 -46 -5 -68 21 -21 40 -20 64 4 39 39 -13 96
-59 64z"/>
<path d="M6902 4034 c-38 -26 -22 -74 24 -74 45 0 58 50 19 76 -18 12 -24 11
-43 -2z"/>
</g>
</svg>
