<?xml version="1.0" standalone="no"?>
<!DOCTYPE svg PUBLIC "-//W3C//DTD SVG 20010904//EN"
 "http://www.w3.org/TR/2001/REC-SVG-20010904/DTD/svg10.dtd">
<svg version="1.0" xmlns="http://www.w3.org/2000/svg"
 width="800.000000pt" height="708.000000pt" viewBox="0 0 800.000000 708.000000"
 preserveAspectRatio="xMidYMid meet">

<g transform="translate(0.000000,708.000000) scale(0.100000,-0.100000)"
fill="#000000" stroke="none">
<path d="M7470 6174 c-168 -74 -447 -197 -620 -274 -439 -193 -594 -262 -602
-269 -4 -4 107 -84 247 -180 169 -115 252 -177 247 -185 -19 -31 -121 -180
-176 -256 -573 -806 -1187 -1458 -1765 -1875 -67 -48 -121 -89 -121 -92 0 -2
54 33 120 77 69 47 125 78 131 74 7 -4 9 -3 6 3 -4 6 3 19 14 29 17 15 22 16
29 4 5 -7 16 -15 24 -16 9 -1 14 2 11 6 -3 5 3 14 14 19 26 14 44 14 35 0 -4
-7 0 -9 14 -5 11 4 23 2 27 -4 3 -5 2 -10 -2 -10 -5 0 -14 -9 -21 -21 -12 -19
-11 -19 7 -10 12 7 22 7 26 1 3 -5 12 -7 21 -3 12 4 14 0 8 -23 -5 -23 -4 -27
6 -17 7 6 14 27 15 45 4 44 4 45 15 28 6 -9 5 -17 -3 -22 -8 -5 -7 -8 5 -8 14
0 13 -4 -6 -25 -20 -22 -22 -29 -12 -50 l11 -24 5 22 c5 20 7 20 13 4 4 -10
11 -16 16 -13 9 6 25 -31 21 -49 -1 -5 -3 -16 -3 -22 0 -7 -5 -13 -11 -13 -6
0 -5 -4 3 -9 10 -6 10 -10 1 -16 -8 -5 -6 -11 7 -20 16 -13 16 -13 -7 -8 -22
6 -24 5 -11 -10 7 -9 17 -15 21 -12 5 3 11 1 15 -5 3 -6 -1 -13 -9 -16 -9 -3
-13 -10 -10 -15 3 -5 0 -9 -6 -9 -6 0 -9 -4 -5 -10 3 -5 -7 -20 -22 -34 -91
-80 -84 -76 57 29 202 151 416 333 698 594 327 303 815 881 1152 1366 46 66
84 122 86 123 1 2 78 -50 171 -115 92 -66 204 -145 249 -176 l81 -56 7 117 c4
64 18 299 31 522 14 223 32 527 40 675 8 149 17 294 20 323 3 28 2 52 -2 51
-5 0 -145 -61 -313 -135z m-2160 -2694 c0 -5 -10 -12 -22 -16 -21 -6 -21 -7
-3 -20 15 -11 22 -11 34 -1 14 11 14 10 3 -5 -8 -10 -19 -16 -25 -15 -7 1 -11
-6 -11 -15 1 -10 -2 -18 -7 -18 -5 0 -8 -3 -8 -7 5 -30 -3 -52 -15 -47 -8 3
-23 -3 -34 -14 -11 -11 -23 -18 -26 -14 -3 3 -6 -2 -6 -10 0 -9 -9 -18 -20
-21 -11 -3 -20 -1 -20 4 0 6 -10 1 -22 -10 -19 -19 -22 -19 -33 -4 -10 13 -14
13 -20 3 -6 -9 -4 -11 5 -5 8 5 11 4 6 -3 -4 -6 -13 -9 -21 -6 -8 4 -12 11 -9
16 4 6 1 14 -6 18 -14 9 28 49 134 133 34 26 66 52 72 57 7 5 15 6 18 3 3 -4
6 -1 6 5 0 6 7 9 15 6 8 -4 15 -10 15 -14z m-9 -193 c-10 -9 -11 -8 -5 6 3 10
9 15 12 12 3 -3 0 -11 -7 -18z m-261 -10 c0 -7 -9 -18 -20 -25 -16 -10 -20
-10 -20 1 0 14 20 37 32 37 4 0 8 -6 8 -13z m100 -66 c0 -6 -4 -12 -8 -15 -5
-3 -9 1 -9 9 0 8 4 15 9 15 4 0 8 -4 8 -9z m105 -110 c-3 -5 -1 -12 5 -16 5
-3 10 -1 10 6 0 7 2 10 5 8 8 -8 -7 -49 -18 -49 -6 0 -7 3 -4 6 3 4 2 14 -3
24 -5 10 -6 20 -3 24 10 9 15 7 8 -3z"/>
<path d="M5250 3409 c0 -13 -4 -18 -12 -13 -8 5 -8 1 2 -12 8 -10 15 -20 16
-22 0 -1 1 14 2 33 1 19 -1 35 -3 35 -3 0 -5 -9 -5 -21z"/>
<path d="M5190 3329 c0 -5 5 -7 10 -4 6 3 10 8 10 11 0 2 -4 4 -10 4 -5 0 -10
-5 -10 -11z"/>
<path d="M5106 3285 c-3 -8 -1 -15 4 -15 6 0 10 7 10 15 0 8 -2 15 -4 15 -2 0
-6 -7 -10 -15z"/>
<path d="M3973 5380 c-146 -29 -294 -109 -400 -216 -111 -113 -81 -61 -500
-864 -100 -190 -264 -505 -366 -700 -101 -195 -282 -541 -401 -767 -119 -227
-216 -416 -216 -421 0 -24 344 -60 366 -38 6 6 75 133 154 281 366 692 731
1387 875 1665 266 514 275 530 335 591 181 183 454 181 626 -4 63 -67 68 -77
344 -602 208 -397 325 -615 343 -639 13 -18 22 -12 141 104 69 67 126 128 126
134 0 23 -557 1068 -613 1151 -107 158 -290 281 -476 321 -71 15 -270 17 -338
4z"/>
<path d="M4026 4387 c-54 -105 -163 -313 -241 -462 -78 -148 -243 -461 -365
-695 -123 -234 -261 -497 -307 -584 -46 -87 -81 -161 -78 -164 9 -9 178 40
295 85 191 75 173 59 274 250 243 462 379 721 446 851 40 78 76 142 80 142 4
0 88 -151 186 -335 l178 -334 51 37 c29 20 93 66 143 102 50 36 91 68 92 72 0
7 -335 647 -465 888 -40 74 -96 181 -124 238 -28 56 -55 102 -59 102 -4 0 -51
-87 -106 -193z"/>
<path d="M2855 4320 c-3 -5 -1 -10 4 -10 6 0 11 5 11 10 0 6 -2 10 -4 10 -3 0
-8 -4 -11 -10z"/>
<path d="M2803 4289 c-35 -22 -46 -37 -15 -20 22 13 58 40 52 41 -3 0 -20 -10
-37 -21z"/>
<path d="M2835 4270 c-9 -16 -13 -30 -11 -30 3 0 12 14 21 30 9 17 13 30 11
30 -3 0 -12 -13 -21 -30z"/>
<path d="M5055 3210 c4 -6 11 -8 16 -5 14 9 11 15 -7 15 -8 0 -12 -5 -9 -10z"/>
<path d="M4965 3200 c3 -5 8 -10 11 -10 2 0 4 5 4 10 0 6 -5 10 -11 10 -5 0
-7 -4 -4 -10z"/>
<path d="M5006 3178 c3 -5 10 -6 15 -3 13 9 11 12 -6 12 -8 0 -12 -4 -9 -9z"/>
<path d="M5110 3132 c0 -19 29 -52 45 -52 5 0 0 7 -11 15 -11 8 -14 15 -6 15
19 0 14 18 -8 30 -17 9 -20 8 -20 -8z"/>
<path d="M5085 3130 c3 -5 8 -10 11 -10 2 0 4 5 4 10 0 6 -5 10 -11 10 -5 0
-7 -4 -4 -10z"/>
<path d="M5680 2983 c-74 -63 -134 -119 -132 -125 4 -14 278 -531 710 -1339
111 -207 205 -384 208 -393 6 -14 -19 -16 -247 -16 l-254 0 -107 208 c-60 114
-186 353 -281 532 -95 179 -222 417 -282 530 -60 113 -110 207 -112 210 -2 2
-10 0 -18 -5 -66 -47 -257 -174 -267 -178 -10 -3 -7 -17 10 -53 25 -52 280
-538 494 -939 70 -132 178 -336 240 -452 l113 -213 663 0 664 0 -20 33 c-11
17 -77 140 -147 272 -70 132 -239 447 -375 700 -136 253 -352 656 -480 895
-127 239 -235 438 -238 441 -4 4 -68 -45 -142 -108z"/>
<path d="M5157 3019 c7 -7 15 -10 18 -7 3 3 -2 9 -12 12 -14 6 -15 5 -6 -5z"/>
<path d="M5199 2948 c-4 -8 -6 -48 -3 -48 11 0 23 40 14 45 -5 3 -11 5 -11 3z"/>
<path d="M4470 2909 c-22 -18 -22 -19 -3 -10 12 6 25 16 28 21 9 15 3 12 -25
-11z"/>
<path d="M4414 2874 c-18 -14 -18 -15 4 -4 12 6 22 13 22 15 0 8 -5 6 -26 -11z"/>
<path d="M4364 2844 c-18 -14 -18 -15 4 -4 12 6 22 13 22 15 0 8 -5 6 -26 -11z"/>
<path d="M4314 2814 c-18 -14 -18 -15 4 -4 12 6 22 13 22 15 0 8 -5 6 -26 -11z"/>
<path d="M4808 2587 c-86 -55 -140 -95 -98 -72 34 19 200 127 200 131 0 7 -2
6 -102 -59z"/>
<path d="M2935 1754 c-55 -13 -153 -31 -217 -40 -65 -10 -118 -21 -118 -25 0
-4 -50 -101 -111 -216 -61 -114 -129 -243 -151 -285 l-39 -78 -250 0 c-137 0
-249 3 -249 8 0 14 91 194 178 354 49 90 92 172 96 183 6 20 -1 22 -119 38
-69 9 -151 25 -181 36 l-55 18 -36 -71 c-19 -39 -94 -181 -165 -316 -72 -135
-173 -324 -224 -422 -52 -97 -94 -179 -94 -182 0 -3 296 -6 658 -6 l657 0 94
183 c52 100 154 295 226 432 170 321 217 415 208 414 -5 -1 -53 -12 -108 -25z"/>
</g>
</svg>
