<?xml version="1.0" standalone="no"?>
<!DOCTYPE svg PUBLIC "-//W3C//DTD SVG 20010904//EN"
 "http://www.w3.org/TR/2001/REC-SVG-20010904/DTD/svg10.dtd">
<svg version="1.0" xmlns="http://www.w3.org/2000/svg"
 width="1254.000000pt" height="1254.000000pt" viewBox="0 0 1254.000000 1254.000000"
 preserveAspectRatio="xMidYMid meet">

<g transform="translate(0.000000,1254.000000) scale(0.100000,-0.100000)"
fill="#000000" stroke="none">
<path d="M10015 10030 c-547 -214 -695 -272 -1053 -413 -294 -115 -303 -120
-280 -135 49 -33 543 -385 552 -393 11 -9 -110 -199 -318 -499 -408 -590 -860
-1132 -1275 -1531 -93 -90 -168 -166 -166 -169 3 -4 -8 -18 -23 -31 l-27 -24
25 29 25 30 -30 -22 c-16 -12 -61 -51 -100 -88 -38 -36 -62 -61 -52 -54 9 7
17 10 17 6 0 -4 11 1 25 10 14 9 23 19 20 24 -2 4 10 21 28 38 30 29 57 36 73
19 4 -4 12 -7 18 -7 6 0 4 5 -4 10 -9 6 -10 10 -3 10 15 0 32 -30 26 -46 -5
-16 37 -31 82 -29 22 1 34 0 28 -2 -7 -3 -13 -9 -13 -14 0 -4 7 -6 15 -3 8 4
23 0 31 -7 9 -8 31 -12 48 -11 24 2 28 0 16 -7 -10 -7 -11 -11 -2 -11 6 0 12
-4 12 -10 0 -5 -8 -7 -17 -4 -14 5 -15 4 -4 -4 7 -5 22 -7 34 -4 14 3 18 1 13
-6 -4 -7 -1 -12 6 -12 9 0 9 -3 2 -8 -12 -8 -4 -52 11 -55 5 -1 9 -5 8 -9 -2
-5 5 -8 14 -8 9 0 13 -3 10 -7 -11 -11 35 -53 58 -53 12 0 31 -9 44 -21 l22
-21 57 49 c105 89 628 617 742 748 315 363 647 810 924 1245 54 85 102 159
107 164 4 4 123 -83 264 -194 270 -212 275 -214 275 -143 0 24 110 1265 156
1766 4 37 3 67 -2 67 -5 -1 -193 -73 -419 -160z m-2459 -3079 c-12 -13 -14
-21 -6 -26 5 -3 7 -11 3 -18 -4 -7 -9 -4 -14 9 -6 17 14 54 29 54 3 0 -3 -9
-12 -19z m-13 -168 c-7 -2 -19 -2 -25 0 -7 3 -2 5 12 5 14 0 19 -2 13 -5z
m552 -94 c4 -5 -1 -19 -10 -29 -13 -15 -20 -16 -30 -7 -11 10 -10 15 2 30 18
20 29 22 38 6z"/>
<path d="M5982 9550 c-292 -64 -543 -239 -720 -502 -61 -91 -442 -800 -1042
-1938 -270 -513 -498 -941 -794 -1494 -65 -120 -114 -222 -109 -226 32 -31
518 -66 540 -39 11 14 232 426 710 1324 135 253 278 521 318 595 78 146 608
1142 734 1380 65 124 87 156 156 226 65 66 96 89 165 122 106 51 151 62 265
61 153 0 285 -59 398 -179 69 -72 97 -123 399 -720 97 -190 244 -479 328 -643
l152 -297 71 64 c40 36 126 120 192 187 l120 122 -360 716 c-198 394 -386 755
-417 803 -136 208 -350 359 -607 429 -116 31 -373 36 -499 9z"/>
<path d="M6027 8143 c-326 -590 -665 -1218 -1027 -1903 -106 -201 -235 -444
-286 -542 -52 -97 -94 -181 -94 -186 0 -34 639 199 681 248 9 11 99 178 199
372 101 194 240 463 310 598 70 135 176 341 236 457 60 117 111 213 114 213 6
0 155 -281 335 -632 70 -137 130 -248 133 -248 7 0 144 103 310 230 39 30 71
58 72 63 0 9 -799 1609 -810 1620 -4 5 -82 -126 -173 -290z"/>
<path d="M7181 6646 c-17 -19 -20 -26 -9 -32 7 -4 10 -3 5 1 -4 5 3 19 15 32
12 13 19 23 16 23 -2 0 -15 -11 -27 -24z"/>
<path d="M8115 6353 c-88 -80 -175 -158 -194 -173 l-33 -28 100 -194 c55 -106
213 -418 352 -693 139 -275 279 -549 310 -610 31 -60 144 -281 250 -490 106
-209 212 -417 236 -462 24 -45 40 -85 35 -87 -4 -3 -128 -4 -275 -3 l-268 2
-155 300 c-329 638 -805 1555 -863 1665 -33 63 -75 143 -92 176 l-31 62 -177
-132 c-97 -72 -190 -141 -208 -153 l-31 -23 38 -72 c134 -252 795 -1530 1045
-2018 l135 -265 846 -3 846 -2 -7 22 c-4 13 -51 109 -104 213 -53 105 -173
339 -265 520 -92 182 -211 416 -265 520 -54 105 -187 366 -295 580 -109 215
-239 471 -290 570 -327 638 -469 911 -474 916 -3 4 -78 -59 -166 -138z"/>
<path d="M7836 6431 c-3 -4 -17 -6 -31 -3 -24 4 -30 -3 -26 -35 1 -8 -5 -10
-15 -6 -13 5 -16 3 -11 -10 5 -13 1 -17 -19 -17 -15 0 -24 -5 -22 -12 8 -23
24 -16 83 37 33 30 57 55 53 55 -4 0 -9 -4 -12 -9z"/>
<path d="M7614 6238 l-19 -23 23 19 c21 18 27 26 19 26 -2 0 -12 -10 -23 -22z"/>
<path d="M4550 4538 c-116 -33 -341 -83 -462 -103 l-37 -6 -207 -402 c-114
-221 -212 -405 -218 -409 -13 -9 -631 -10 -664 -2 -22 6 -22 8 26 98 27 50
117 224 201 387 l151 296 -133 16 c-72 9 -186 30 -252 46 -66 16 -122 28 -126
26 -3 -2 -24 -39 -46 -82 -154 -299 -639 -1239 -641 -1245 -2 -4 405 -8 905
-8 l908 0 103 198 c56 108 159 305 228 437 215 411 406 786 403 789 -2 1 -65
-15 -139 -36z"/>
</g>
</svg>
